<svg xmlns="http://www.w3.org/2000/svg" width="448" height="448">
    <path style="fill:#fbfcfc; stroke:none;" d="M0 0L0 36L3 36L8 19C17.6934 16.1639 18.0056 8.49094 18 0L0 0z"/>
    <path style="fill:#aac2da; stroke:none;" d="M18 0C18.001 8.98706 16.8964 14.6909 8 19L0 39C5.04837 37.5233 5.7697 28.3432 8.43056 24C13.3657 15.9447 20.7863 10.3075 29 6L28 0L27 0L27 6L25 0L23 0L24 8L20 9L21 0L18 0z"/>
    <path style="fill:#fbfcfc; stroke:none;" d="M21 0L20 9L24 8L23 0L21 0M25 0L27 6L27 0L25 0M28 0L28 5L36 3L36 0C33.0066 0.0642395 31.6544 -0.0539551 31 3L30 3L28 0z"/>
    <path style="fill:#aac2da; stroke:none;" d="M30 0L30 3L31 3L30 0M36 0L36 3L30 4L30 5L42 3L42 0L36 0z"/>
    <path style="fill:#fbfcfc; stroke:none;" d="M42 2L76 1C70.3303 -1.37912 46.0703 -2.65799 42 2z"/>
    <path style="fill:#aac2da; stroke:none;" d="M76 0L43 1L43 2L77 1L76 0z"/>
    <path style="fill:#2671c1; stroke:none;" d="M0 42C0 140.063 1.99371 238.17 2 336C2.00155 360.128 -1.58423 383.124 3 407C4.20346 413.268 6.65863 427.555 14.1736 429.654C20.4602 431.41 33.6235 413.286 37.9144 409.184C53.4966 394.288 68.5659 378.858 83.909 363.714C91.12 356.596 97.7557 347.923 106 342C100.042 323.206 110.866 313.667 123.255 301.117C141.561 282.571 160.275 264.431 178.576 245.884C183.627 240.765 196.896 231.923 198.542 224.816C199.274 221.656 195.932 218.985 193.995 217C188.07 210.93 181.998 204.998 176 199L118 141C109.148 132.144 99.7422 121.428 105.225 108C111.496 92.6392 129.93 87.571 143 97.5324C171.375 119.158 195.76 149.76 221 175C227.332 181.332 233.607 187.726 240 193.995C242.035 195.991 244.776 199.459 248 199.079C253.075 198.48 258.603 190.397 262 187L296 153L386 63C401.54 47.4597 419.709 32.5194 433 15C415.283 1.91562 400.641 4.61667 380.004 2.94214C367.075 1.89307 354.517 0 341 0L341 3L275 0L275 3C254.792 3 236.099 -0.136871 216.001 0.000762939C205.085 0.075531 194.543 3.45868 183.001 2.98071C178.013 2.77417 174.113 0.0357971 168.999 0.000762939C151.151 -0.12146 134.792 3.71747 117.001 2.98071C105.423 2.50128 94.2596 -0.498016 82.0147 0.0192871C76.4302 0.255219 71.8619 2.99738 66 3C54.0409 3.00537 40.3024 1.36951 29 6.01852C19.766 9.81677 11.607 17.0016 7.13503 26C4.60606 31.0887 5.01581 38.9314 0 42z"/>
    <path style="fill:#517193; stroke:none;" d="M110 0C113.932 6.06461 136.485 3.92569 143 2L143 1C134.362 3.05661 117.903 4.39526 110 0z"/>
    <path style="fill:#fbfcfc; stroke:none;" d="M111 0L111 1L142 1L111 0z"/>
    <path style="fill:#aac2da; stroke:none;" d="M142 0L143 1L142 0z"/>
    <path style="fill:#517193; stroke:none;" d="M176 0C180.189 6.46188 200.724 3 208 3L208 2C198.563 2 184.401 4.67227 176 0z"/>
    <path style="fill:#fbfcfc; stroke:none;" d="M177 0L177 1L208 1L177 0z"/>
    <path style="fill:#aac2da; stroke:none;" d="M208 0L177 1L177 2L201 2L208 0z"/>
    <path style="fill:#517193; stroke:none;" d="M242 0C246.248 6.55179 267.596 3 275 3L275 2C265.327 2 250.604 4.78525 242 0z"/>
    <path style="fill:#aac2da; stroke:none;" d="M243 0C246.508 4.01465 271.492 4.01465 275 0C265.59 2.24036 252.41 2.24036 243 0z"/>
    <path style="fill:#fbfcfc; stroke:none;" d="M244 0L244 1L274 1L244 0z"/>
    <path style="fill:#517193; stroke:none;" d="M308 0C312.247 6.55179 333.597 3 341 3L341 2C331.327 2 316.604 4.78522 308 0z"/>
    <path style="fill:#aac2da; stroke:none;" d="M309 0C312.508 4.01465 337.492 4.01462 341 0C331.59 2.24036 318.41 2.24036 309 0z"/>
    <path style="fill:#fbfcfc; stroke:none;" d="M310 0L310 1L340 1L310 0z"/>
    <path style="fill:#517193; stroke:none;" d="M374 0C378.211 6.49554 403.18 3.38284 411 4L411 3C400.041 1.61505 383.655 5.36951 374 0z"/>
    <path style="fill:#aac2da; stroke:none;" d="M375 0L387 2L418 5L418 0L417 0L417 3L411 3L412 0L375 0z"/>
    <path style="fill:#fbfcfc; stroke:none;" d="M376 0L376 1L406 1L376 0z"/>
    <path style="fill:#517193; stroke:none;" d="M407 0L408 1L407 0z"/>
    <path style="fill:#fbfcfc; stroke:none;" d="M411 3L417 3L417 0L411 3M418 0L420 5L420 0L418 0z"/>
    <path style="fill:#aac2da; stroke:none;" d="M420 0L419 6C429.022 11.3173 436.632 17.9235 442 28L443 28C438.7 16.3466 429.999 12.9832 430 0L427 0L428 9L424 8L425 0L423 0L423 6L421 6L420 0z"/>
    <path style="fill:#fbfcfc; stroke:none;" d="M421 0L421 6L423 6L423 0L421 0M425 0L424 8L428 9L427 0L425 0M430 0L430.313 10.8302L445 35L448 35L448 0L430 0z"/>
    <path style="fill:#517193; stroke:none;" d="M76 1L77 2L76 1z"/>
    <path style="fill:#aac2da; stroke:none;" d="M111 1L111 2L142 2L111 1z"/>
    <path style="fill:#517193; stroke:none;" d="M42 2L42 3L76 3L42 2M37 3L37 4L41 4L37 3M32 4L33 5L32 4M414.667 4.33334L415.333 4.66666L414.667 4.33334M29.6667 5.33334L30.3333 5.66666L29.6667 5.33334M416 5L416 6L419 6L416 5M25 7L26 8L25 7M422 7L423 8L422 7M423 8L424 9L423 8M22 9L23 10L22 9M425 9L426 10L425 9M20 10L21 11L20 10M19 11L20 12L19 11M428 11L429 12L428 11M429 12L430 13L429 12M430 13L431 14L430 13M433 15L436 18L433 15z"/>
    <path style="fill:#194b81; stroke:none;" d="M431 16L400 48L340 108L279 169L247 200C254.289 209.198 262.949 217.049 259.211 230C255.163 244.024 237.945 255.056 228 265L170 323C160.653 332.347 151.265 344.849 140 351.856C127.006 359.938 114.39 353.004 106 342C97.1662 346.285 90.0266 356.868 83.091 363.714C67.1237 379.474 50.737 394.964 35.0864 411.036C30.9762 415.257 12.9787 428.685 17.4923 434.557C25.8463 445.426 41.1771 444.304 53 444.015C76.5335 443.438 100.453 444 124 444L321 444C341.69 443.999 362.32 444.25 383 444.004C393.025 443.885 404.207 445.925 414 443.531C439.333 437.338 445 413.412 445 391L448 391L448 366L445 366L445 325L448 325L448 300L445 300L445 259L448 259L448 234L445 234L445 193L448 193L448 168L445 168L445 127L448 127L448 102L445 102L445 61L448 61L448 43L445 44C443.574 32.7156 439.962 25.5018 434 16L431 16z"/>
    <path style="fill:#2671c1; stroke:none;" d="M434 17L435 18L434 17z"/>
    <path style="fill:#517193; stroke:none;" d="M12 18L13 19L12 18z"/>
    <path style="fill:#2671c1; stroke:none;" d="M435 18L436 19L435 18z"/>
    <path style="fill:#517193; stroke:none;" d="M11 19L12 20L11 19M436 19L437 20L436 19M10 20L11 21L10 20M437 20L439 22L437 20z"/>
    <path style="fill:#2671c1; stroke:none;" d="M437 21L438 22L437 21z"/>
    <path style="fill:#517193; stroke:none;" d="M8 23L9 24L8 23M439 23L440 26L441 26L439 23z"/>
    <path style="fill:#2671c1; stroke:none;" d="M439 24L440 25L439 24z"/>
    <path style="fill:#517193; stroke:none;" d="M6 27L7 28L6 27M441 27L442 28L441 27M442.333 28.6667L442.667 29.3333L442.333 28.6667M5 29L6 30L5 29z"/>
    <path style="fill:#aac2da; stroke:none;" d="M443 29L445 38L448 35L443 29z"/>
    <path style="fill:#2671c1; stroke:none;" d="M442 30L444 33L442 30z"/>
    <path style="fill:#517193; stroke:none;" d="M443 31L444 32L443 31M4 32L5 33L4 32M444 35L447 41L448 37L444 35M3 36L3 39L4 39L3 36M0 39L0 42L3 42L3 39L0 39z"/>
    <path style="fill:#2671c1; stroke:none;" d="M444 39L445 44L448 40L444 39z"/>
    <path style="fill:#aac2da; stroke:none;" d="M0.666667 61.3333L1.33333 61.6667L0.666667 61.3333z"/>
    <path style="fill:#2671c1; stroke:none;" d="M445 61L446 62L445 61z"/>
    <path style="fill:#aac2da; stroke:none;" d="M446.667 61.3333L447.333 61.6667L446.667 61.3333z"/>
    <path style="fill:#fbfcfc; stroke:none;" d="M0 62L0 101L1 101L2 62L0 62z"/>
    <path style="fill:#517193; stroke:none;" d="M445 62L446 63L445 62z"/>
    <path style="fill:#fbfcfc; stroke:none;" d="M446 62L447 101L448 101L448 73L446 62z"/>
    <path style="fill:#aac2da; stroke:none;" d="M1 63L1 99L2 99C2 88.6131 5.01138 72.5596 1 63z"/>
    <path style="fill:#2671c1; stroke:none;" d="M445 63L445 99L446 99C446 88.613 449.011 72.5596 445 63z"/>
    <path style="fill:#aac2da; stroke:none;" d="M446 63L446 99L447 99C447 88.613 450.011 72.5597 446 63z"/>
    <path style="fill:#517193; stroke:none;" d="M122 92L122 93L125 93L122 92z"/>
    <path style="fill:#aac2da; stroke:none;" d="M125 92L125 93L131 93L125 92z"/>
    <path style="fill:#517193; stroke:none;" d="M131 92L131 93L134 93L131 92M120 93L121 94L120 93z"/>
    <path style="fill:#aac2da; stroke:none;" d="M106 107L107 107C111.243 100.328 116.192 95.8717 124 94C116.247 91.7137 108.498 100.551 106 107z"/>
    <path style="fill:#fbfcfc; stroke:none;" d="M202 225C191.529 229.982 183.31 242.269 174.961 250.17C153.496 270.482 127.287 292.086 109.928 316C101.027 328.263 104.348 347.724 120 352.671C137.177 358.099 147.379 344.579 158.371 334C184.995 308.378 210.756 281.836 236.92 255.753C247.512 245.193 262.744 233.914 257.557 217C253.238 202.915 236.121 191.121 226 181L171 126C161.751 116.751 152.741 105.305 142 97.8002C124.243 85.3925 102.603 100.325 105.185 121C106.794 133.884 122.401 144.401 131 153C153.93 175.93 183.345 198.517 202 225z"/>
    <path style="fill:#aac2da; stroke:none;" d="M132 93L132 94C147.224 97.6496 159.341 115.341 170 126C197.84 153.84 231.148 180.695 255 212L256 212C249.862 200.167 236.377 190.377 227 181L167 121C157.258 111.258 146.388 95.1567 132 93z"/>
    <path style="fill:#517193; stroke:none;" d="M135 93L136 94L135 93M117 94L118 95L117 94M138 94L139 95L138 94M115 95L116 96L115 95M140 95L141 96L140 95M112 97L113 98L112 97M143 97L144 98L143 97M144 98L145 99L144 98M110 99L111 100L110 99M145 99L146 100L145 99M445 99L446 100L445 99z"/>
    <path style="fill:#aac2da; stroke:none;" d="M1 100L2 101L1 100z"/>
    <path style="fill:#517193; stroke:none;" d="M109 100L110 101L109 100M146 100L147 101L146 100z"/>
    <path style="fill:#2671c1; stroke:none;" d="M445.333 100.667L445.667 101.333L445.333 100.667z"/>
    <path style="fill:#aac2da; stroke:none;" d="M446 100L447 101L446 100z"/>
    <path style="fill:#517193; stroke:none;" d="M0 101L1 102L0 101M147 101L148 102L147 101M446.667 101.333L447.333 101.667L446.667 101.333M148 102L149 103L148 102M107 103L108 104L107 103M149 103L150 104L149 103M150 104L151 105L150 104M151 105L152 106L151 105M105.333 106.667L105.667 107.333L105.333 106.667M152 106L153 107L152 106M153 107L154 108L153 107z"/>
    <path style="fill:#aac2da; stroke:none;" d="M105 108L105 125L106 125L105 108z"/>
    <path style="fill:#517193; stroke:none;" d="M154 108L155 109L154 108M104 109L105 110L104 109M155 109L156 110L155 109M156 110L157 111L156 110M157 111L158 112L157 111M158 112L159 113L158 112M159 113L160 114L159 113M160 114L161 115L160 114M161 115L162 116L161 115M103 116L104 117L103 116M162 116L163 117L162 116M163 117L164 118L163 117M164 118L165 119L164 118M165 119L166 120L165 119M166 120L167 121L166 120M167 121L168 122L167 121M168 122L169 123L168 122M104 123L105 124L104 123M169 123L170 124L169 123M170 124L171 125L170 124M105.333 125.667L105.667 126.333L105.333 125.667M171 125L172 126L171 125z"/>
    <path style="fill:#aac2da; stroke:none;" d="M106.333 126.667L106.667 127.333L106.333 126.667z"/>
    <path style="fill:#517193; stroke:none;" d="M172 126L173 127L172 126z"/>
    <path style="fill:#aac2da; stroke:none;" d="M0.666667 127.333L1.33333 127.667L0.666667 127.333z"/>
    <path style="fill:#517193; stroke:none;" d="M173 127L174 128L173 127z"/>
    <path style="fill:#2671c1; stroke:none;" d="M445 127L446 128L445 127z"/>
    <path style="fill:#aac2da; stroke:none;" d="M446.667 127.333L447.333 127.667L446.667 127.333z"/>
    <path style="fill:#fbfcfc; stroke:none;" d="M0 128L0 167L1 167L2 128L0 128z"/>
    <path style="fill:#aac2da; stroke:none;" d="M107.333 128.667L107.667 129.333L107.333 128.667z"/>
    <path style="fill:#517193; stroke:none;" d="M174 128L175 129L174 128M445 128L446 129L445 128z"/>
    <path style="fill:#fbfcfc; stroke:none;" d="M446 128L447 167L448 167L448 139L446 128z"/>
    <path style="fill:#aac2da; stroke:none;" d="M1 129L1 165L2 165C2 154.613 5.01138 138.56 1 129z"/>
    <path style="fill:#517193; stroke:none;" d="M175 129L176 130L175 129z"/>
    <path style="fill:#2671c1; stroke:none;" d="M445 129L445 165L446 165C446 154.613 449.011 138.56 445 129z"/>
    <path style="fill:#aac2da; stroke:none;" d="M446 129L446 165L447 165C447 154.613 450.011 138.56 446 129M108 130L109 131L108 130z"/>
    <path style="fill:#517193; stroke:none;" d="M176 130L177 131L176 130z"/>
    <path style="fill:#aac2da; stroke:none;" d="M109 131C126.882 156.385 155.022 178.022 177 200C182.968 205.968 200.454 217.892 198 227L202 225C196.526 213.263 182.12 203.12 173 194C152.609 173.609 132.555 147.592 109 131z"/>
    <path style="fill:#517193; stroke:none;" d="M177 131L178 132L177 131M109 132L110 133L109 132M178 132L179 133L178 132M110 133L111 134L110 133M179 133L180 134L179 133M111 134L112 135L111 134M180 134L181 135L180 134M112 135L113 136L112 135M181 135L182 136L181 135M113 136L114 137L113 136M182 136L183 137L182 136M114 137L115 138L114 137M183 137L184 138L183 137M115 138L116 139L115 138M184 138L185 139L184 138M116 139L117 140L116 139M185 139L186 140L185 139M117 140L118 141L117 140M186 140L187 141L186 140M118 141L119 142L118 141M187 141L188 142L187 141M119 142L120 143L119 142M188 142L189 143L188 142M120 143L121 144L120 143M189 143L190 144L189 143M121 144L122 145L121 144M190 144L191 145L190 144M122 145L123 146L122 145M191 145L192 146L191 145M123 146L124 147L123 146M192 146L193 147L192 146M124 147L125 148L124 147M193 147L194 148L193 147M125 148L126 149L125 148M194 148L195 149L194 148M126 149L127 150L126 149M195 149L196 150L195 149M127 150L128 151L127 150M196 150L197 151L196 150M128 151L129 152L128 151M197 151L198 152L197 151M129 152L130 153L129 152M198 152L199 153L198 152M130 153L131 154L130 153M199 153L200 154L199 153M131 154L132 155L131 154M200 154L201 155L200 154M132 155L133 156L132 155M201 155L202 156L201 155M133 156L134 157L133 156M202 156L203 157L202 156M134 157L135 158L134 157M203 157L204 158L203 157M135 158L136 159L135 158M204 158L205 159L204 158M136 159L137 160L136 159M205 159L206 160L205 159M137 160L138 161L137 160M206 160L207 161L206 160M138 161L139 162L138 161M207 161L208 162L207 161M139 162L140 163L139 162M208 162L209 163L208 162M140 163L141 164L140 163M209 163L210 164L209 163M141 164L142 165L141 164M210 164L211 165L210 164M142 165L143 166L142 165M211 165L212 166L211 165M445 165L446 166L445 165z"/>
    <path style="fill:#aac2da; stroke:none;" d="M1 166L2 167L1 166z"/>
    <path style="fill:#517193; stroke:none;" d="M143 166L144 167L143 166M212 166L213 167L212 166z"/>
    <path style="fill:#2671c1; stroke:none;" d="M445.333 166.667L445.667 167.333L445.333 166.667z"/>
    <path style="fill:#aac2da; stroke:none;" d="M446 166L447 167L446 166z"/>
    <path style="fill:#517193; stroke:none;" d="M0 167L1 168L0 167M144 167L145 168L144 167M213 167L214 168L213 167M446.667 167.333L447.333 167.667L446.667 167.333M145 168L146 169L145 168M214 168L215 169L214 168M146 169L147 170L146 169M215 169L216 170L215 169M147 170L148 171L147 170M216 170L217 171L216 170M148 171L149 172L148 171M217 171L218 172L217 171M149 172L150 173L149 172M218 172L219 173L218 172M150 173L151 174L150 173M219 173L220 174L219 173M151 174L152 175L151 174M220 174L221 175L220 174M152 175L153 176L152 175M221 175L222 176L221 175M153 176L154 177L153 176M222 176L223 177L222 176M154 177L155 178L154 177M223 177L224 178L223 177M155 178L156 179L155 178M224 178L225 179L224 178M156 179L157 180L156 179M225 179L226 180L225 179M157 180L158 181L157 180M226 180L227 181L226 180M158 181L159 182L158 181M227 181L228 182L227 181M159 182L160 183L159 182M228 182L229 183L228 182M160 183L161 184L160 183M229 183L230 184L229 183M161 184L162 185L161 184M230 184L231 185L230 184M162 185L163 186L162 185M231 185L232 186L231 185M163 186L164 187L163 186M232 186L233 187L232 186M164 187L165 188L164 187M233 187L234 188L233 187M165 188L166 189L165 188M234 188L235 189L234 188M166 189L167 190L166 189M235 189L236 190L235 189M167 190L168 191L167 190M236 190L237 191L236 190M168 191L169 192L168 191M237 191L238 192L237 191M169 192L170 193L169 192M238 192L239 193L238 192z"/>
    <path style="fill:#aac2da; stroke:none;" d="M0.666667 193.333L1.33333 193.667L0.666667 193.333z"/>
    <path style="fill:#517193; stroke:none;" d="M170 193L171 194L170 193M239 193L240 194L239 193z"/>
    <path style="fill:#2671c1; stroke:none;" d="M445 193L445 231L446 231C446 220.089 449.211 203.036 445 193z"/>
    <path style="fill:#aac2da; stroke:none;" d="M446.667 193.333L447.333 193.667L446.667 193.333z"/>
    <path style="fill:#fbfcfc; stroke:none;" d="M0 194L0 233L1 233L2 194L0 194z"/>
    <path style="fill:#517193; stroke:none;" d="M171 194L172 195L171 194M240 194L241 195L240 194z"/>
    <path style="fill:#fbfcfc; stroke:none;" d="M446 194L447 233L448 233L448 205L446 194z"/>
    <path style="fill:#aac2da; stroke:none;" d="M1 195L1 231L2 231C2 220.613 5.01138 204.56 1 195z"/>
    <path style="fill:#517193; stroke:none;" d="M172 195L173 196L172 195M241 195L242 196L241 195z"/>
    <path style="fill:#aac2da; stroke:none;" d="M446 195L446 231L447 231C447 220.613 450.011 204.56 446 195z"/>
    <path style="fill:#517193; stroke:none;" d="M173 196L174 197L173 196M242 196L243 197L242 196M174 197L175 198L174 197M243 197L244 198L243 197M175 198L176 199L175 198M244 198L245 199L244 198M176 199L177 200L176 199M245 199L246 200L245 199M177 200L178 201L177 200M246 200L247 201L246 200M178 201L179 202L178 201M247 201L249 203L247 201z"/>
    <path style="fill:#2671c1; stroke:none;" d="M248 201L249 202L248 201z"/>
    <path style="fill:#517193; stroke:none;" d="M179 202L180 203L179 202M180 203L181 204L180 203M249 203L250 204L249 203M181 204L182 205L181 204M250 204L252 206L250 204z"/>
    <path style="fill:#2671c1; stroke:none;" d="M251 204L252 205L251 204z"/>
    <path style="fill:#517193; stroke:none;" d="M182 205L183 206L182 205M183 206L184 207L183 206M252 206L253 207L252 206M184 207L185 208L184 207M253 207L254 208L253 207M185 208L186 209L185 208M254 208L255 209L254 208M186 209L187 210L186 209z"/>
    <path style="fill:#2671c1; stroke:none;" d="M255 209L257 211L255 209z"/>
    <path style="fill:#517193; stroke:none;" d="M187 210L188 211L187 210M255 210L256 211L255 210M188 211L189 212L188 211M256 211L258 214L256 211M189 212L190 213L189 212M190 213L191 214L190 213z"/>
    <path style="fill:#aac2da; stroke:none;" d="M256 213L257 214L256 213z"/>
    <path style="fill:#517193; stroke:none;" d="M191 214L192 215L191 214z"/>
    <path style="fill:#aac2da; stroke:none;" d="M257 214L258 221L259 221L257 214z"/>
    <path style="fill:#2671c1; stroke:none;" d="M258.333 214.667L258.667 215.333L258.333 214.667z"/>
    <path style="fill:#517193; stroke:none;" d="M192 215L193 216L192 215M193 216L194 217L193 216M258 216L259 217L258 216M194 217L195 218L194 217z"/>
    <path style="fill:#2671c1; stroke:none;" d="M259 217L260 218L259 217z"/>
    <path style="fill:#517193; stroke:none;" d="M195 218L196 219L195 218M259 218L259 223L260 223L259 218M196 219L197 220L196 219M197 220L198 221L197 220M198 221L199 222L198 221M199 222L200 223L199 222z"/>
    <path style="fill:#aac2da; stroke:none;" d="M259.333 223.667L259.667 224.333L259.333 223.667z"/>
    <path style="fill:#517193; stroke:none;" d="M199 224L200 225L199 224M259 225L258 232L259 232L259 225M196 227L197 228L196 227z"/>
    <path style="fill:#aac2da; stroke:none;" d="M197 227L198 228L197 227M258 227L258 230L259 230L258 227M196 228L197 229L196 228z"/>
    <path style="fill:#517193; stroke:none;" d="M194 229L193 231L194 229z"/>
    <path style="fill:#aac2da; stroke:none;" d="M195 229L196 230L195 229M194 230L195 231L194 230M193 231L194 232L193 231M257 231L256 235L257 235L257 231z"/>
    <path style="fill:#517193; stroke:none;" d="M445 231L446 232L445 231z"/>
    <path style="fill:#aac2da; stroke:none;" d="M1 232L2 233L1 232M192 232L193 233L192 232z"/>
    <path style="fill:#2671c1; stroke:none;" d="M258 232L259 233L258 232M445.333 232.667L445.667 233.333L445.333 232.667z"/>
    <path style="fill:#aac2da; stroke:none;" d="M446 232L447 233L446 232z"/>
    <path style="fill:#517193; stroke:none;" d="M0.666667 233.333L1.33333 233.667L0.666667 233.333z"/>
    <path style="fill:#aac2da; stroke:none;" d="M191 233L189 236L191 233z"/>
    <path style="fill:#517193; stroke:none;" d="M257 233L258 234L257 233M446.667 233.333L447.333 233.667L446.667 233.333M189 234L190 235L189 234z"/>
    <path style="fill:#2671c1; stroke:none;" d="M257 234L258 235L257 234z"/>
    <path style="fill:#517193; stroke:none;" d="M256 235L246 248C250.024 245.158 256.269 240.33 256 235z"/>
    <path style="fill:#aac2da; stroke:none;" d="M188 236L189 237L188 236M255 236L256 237L255 236z"/>
    <path style="fill:#517193; stroke:none;" d="M186 237L187 238L186 237z"/>
    <path style="fill:#aac2da; stroke:none;" d="M187 237L188 238L187 237M254 237L255 238L254 237M186 238L187 239L186 238M253 238L254 239L253 238M185 239L186 240L185 239M252.333 239.667L252.667 240.333L252.333 239.667M184 240L185 241L184 240M183 241L184 242L183 241M251 241L252 242L251 241z"/>
    <path style="fill:#517193; stroke:none;" d="M181 242L182 243L181 242z"/>
    <path style="fill:#aac2da; stroke:none;" d="M182 242L183 243L182 242M250 242L251 243L250 242M181 243L182 244L181 243M249 243L250 244L249 243z"/>
    <path style="fill:#517193; stroke:none;" d="M179 244L180 245L179 244z"/>
    <path style="fill:#aac2da; stroke:none;" d="M180 244L181 245L180 244M248 244L249 245L248 244M179 245L180 246L179 245M247 245L248 246L247 245M178 246L176 249L178 246M246 246L247 247L246 246z"/>
    <path style="fill:#517193; stroke:none;" d="M176 247L177 248L176 247z"/>
    <path style="fill:#aac2da; stroke:none;" d="M245 247L246 248L245 247M244 248L245 249L244 248M175 249L176 250L175 249M243 249L244 250L243 249z"/>
    <path style="fill:#517193; stroke:none;" d="M173 250L174 251L173 250z"/>
    <path style="fill:#aac2da; stroke:none;" d="M174 250L175 251L174 250M242 250L243 251L242 250M173 251L174 252L173 251M241 251L242 252L241 251z"/>
    <path style="fill:#517193; stroke:none;" d="M171 252L172 253L171 252z"/>
    <path style="fill:#aac2da; stroke:none;" d="M172 252L173 253L172 252M238 255L241 252L238 255M171 253L172 254L171 253z"/>
    <path style="fill:#517193; stroke:none;" d="M169 254L168 256L169 254z"/>
    <path style="fill:#aac2da; stroke:none;" d="M170 254L171 255L170 254z"/>
    <path style="fill:#517193; stroke:none;" d="M239 254L240 255L239 254z"/>
    <path style="fill:#aac2da; stroke:none;" d="M169 255L170 256L169 255M237 255L238 256L237 255M168 256L169 257L168 256M236 256L237 257L236 256z"/>
    <path style="fill:#517193; stroke:none;" d="M166 257L167 258L166 257z"/>
    <path style="fill:#aac2da; stroke:none;" d="M167 257L168 258L167 257M234 257L234 259L236 257L234 257M166 258L167 259L166 258M0 259L1 297L2 297L2 270L0 259M165 259L166 260L165 259M233 259L234 260L233 259z"/>
    <path style="fill:#2671c1; stroke:none;" d="M445 259L445 297L446 297C446 286.089 449.211 269.036 445 259z"/>
    <path style="fill:#517193; stroke:none;" d="M446 259L447 260L446 259z"/>
    <path style="fill:#aac2da; stroke:none;" d="M447 259L446 297L447 297L447 259z"/>
    <path style="fill:#fbfcfc; stroke:none;" d="M0 260L0 299L1 299C2.11013 288.902 3.91549 269.331 0 260z"/>
    <path style="fill:#517193; stroke:none;" d="M163 260L164 261L163 260z"/>
    <path style="fill:#aac2da; stroke:none;" d="M164 260L165 261L164 260M232 260L233 261L232 260z"/>
    <path style="fill:#fbfcfc; stroke:none;" d="M447 260L447 299L448 299C448 287.828 451.311 270.274 447 260z"/>
    <path style="fill:#aac2da; stroke:none;" d="M163 261L164 262L163 261M231 261L232 262L231 261z"/>
    <path style="fill:#517193; stroke:none;" d="M161 262L162 263L161 262z"/>
    <path style="fill:#aac2da; stroke:none;" d="M162 262L163 263L162 262M229 262L229 264L231 262L229 262M161 263L162 264L161 263z"/>
    <path style="fill:#517193; stroke:none;" d="M159 264L158 266L159 264z"/>
    <path style="fill:#aac2da; stroke:none;" d="M160 264L161 265L160 264M228 264L229 265L228 264M159 265L160 266L159 265M227 265L228 266L227 265M158 266L159 267L158 266M226 266L227 267L226 266z"/>
    <path style="fill:#517193; stroke:none;" d="M156 267L157 268L156 267z"/>
    <path style="fill:#aac2da; stroke:none;" d="M157 267L158 268L157 267M224 267L224 269L226 267L224 267M156 268L157 269L156 268M155 269L156 270L155 269M223 269L224 270L223 269z"/>
    <path style="fill:#517193; stroke:none;" d="M153 270L154 271L153 270z"/>
    <path style="fill:#aac2da; stroke:none;" d="M154 270L155 271L154 270M222 270L223 271L222 270M153 271L154 272L153 271M221 271L222 272L221 271M152 272L153 273L152 272M220 272L221 273L220 272z"/>
    <path style="fill:#517193; stroke:none;" d="M150 273L148 276L150 273z"/>
    <path style="fill:#aac2da; stroke:none;" d="M151 273L152 274L151 273M219 273L220 274L219 273M150 274L151 275L150 274M218 274L219 275L218 274M149 275L150 276L149 275M217 275L218 276L217 275M148 276L149 277L148 276M216 276L217 277L216 276z"/>
    <path style="fill:#517193; stroke:none;" d="M146 277L145 279L146 277z"/>
    <path style="fill:#aac2da; stroke:none;" d="M147 277L148 278L147 277M214 277L214 279L216 277L214 277M146 278L147 279L146 278M145 279L146 280L145 279M213 279L214 280L213 279z"/>
    <path style="fill:#517193; stroke:none;" d="M143 280L144 281L143 280z"/>
    <path style="fill:#aac2da; stroke:none;" d="M144 280L145 281L144 280M211 280L211 282L213 280L211 280M143 281L144 282L143 281z"/>
    <path style="fill:#517193; stroke:none;" d="M141 282L140 284L141 282z"/>
    <path style="fill:#aac2da; stroke:none;" d="M142 282L143 283L142 282M209 282L209 284L211 282L209 282M141 283L142 284L141 283M140 284L141 285L140 284M208 284L209 285L208 284z"/>
    <path style="fill:#517193; stroke:none;" d="M138 285L139 286L138 285z"/>
    <path style="fill:#aac2da; stroke:none;" d="M139 285L140 286L139 285M206 285L206 287L208 285L206 285M138 286L139 287L138 286z"/>
    <path style="fill:#517193; stroke:none;" d="M136 287L135 289L136 287z"/>
    <path style="fill:#aac2da; stroke:none;" d="M137 287L138 288L137 287M204 287L204 289L206 287L204 287M136 288L137 289L136 288M135 289L136 290L135 289M203 289L204 290L203 289z"/>
    <path style="fill:#517193; stroke:none;" d="M133 290L134 291L133 290z"/>
    <path style="fill:#aac2da; stroke:none;" d="M134 290L135 291L134 290M201 290L201 292L203 290L201 290M133 291L134 292L133 291z"/>
    <path style="fill:#517193; stroke:none;" d="M131 292L130 294L131 292z"/>
    <path style="fill:#aac2da; stroke:none;" d="M132 292L133 293L132 292M200 292L201 293L200 292M131 293L132 294L131 293M199 293L200 294L199 293M130 294L131 295L130 294M198 294L199 295L198 294z"/>
    <path style="fill:#517193; stroke:none;" d="M128 295L125 299L128 295z"/>
    <path style="fill:#aac2da; stroke:none;" d="M129 295L130 296L129 295M196 295L196 297L198 295L196 295M128 296L129 297L128 296M127 297L128 298L127 297M193 300L196 297L193 300z"/>
    <path style="fill:#517193; stroke:none;" d="M445 297L446 298L445 297z"/>
    <path style="fill:#aac2da; stroke:none;" d="M1 298L2 299L1 298M126 298L127 299L126 298z"/>
    <path style="fill:#2671c1; stroke:none;" d="M445.333 298.667L445.667 299.333L445.333 298.667z"/>
    <path style="fill:#aac2da; stroke:none;" d="M446 298L447 299L446 298z"/>
    <path style="fill:#517193; stroke:none;" d="M0.666667 299.333L1.33333 299.667L0.666667 299.333z"/>
    <path style="fill:#aac2da; stroke:none;" d="M125 299L126 300L125 299z"/>
    <path style="fill:#517193; stroke:none;" d="M446.667 299.333L447.333 299.667L446.667 299.333M123 300L124 301L123 300z"/>
    <path style="fill:#aac2da; stroke:none;" d="M124 300L125 301L124 300M191 300L191 302L193 300L191 300M123 301L124 302L123 301M122 302L123 303L122 302M190 302L191 303L190 302z"/>
    <path style="fill:#517193; stroke:none;" d="M120 303L113 311L120 303z"/>
    <path style="fill:#aac2da; stroke:none;" d="M121 303L122 304L121 303M189 303L190 304L189 303M120 304L121 305L120 304M188 304L189 305L188 304M119 305L120 306L119 305M186 305L186 307L188 305L186 305z"/>
    <path style="fill:#2671c1; stroke:none;" d="M314.667 305.333L315.333 305.667L314.667 305.333z"/>
    <path style="fill:#aac2da; stroke:none;" d="M118 306L119 307L118 306z"/>
    <path style="fill:#517193; stroke:none;" d="M242 306L242 307L321 307L296 306L242 306z"/>
    <path style="fill:#2671c1; stroke:none;" d="M321.667 306.333L322.333 306.667L321.667 306.333z"/>
    <path style="fill:#aac2da; stroke:none;" d="M117 307L118 308L117 307M185 307L186 308L185 307z"/>
    <path style="fill:#517193; stroke:none;" d="M234 308L234 309L238 308L234 308z"/>
    <path style="fill:#aac2da; stroke:none;" d="M236 308L236 309L282 308L328 309C321.836 304.789 310.26 307 303 307C281.948 307 256.48 303.124 236 308z"/>
    <path style="fill:#517193; stroke:none;" d="M326.667 307.333L327.333 307.667L326.667 307.333z"/>
    <path style="fill:#aac2da; stroke:none;" d="M116 308L117 309L116 308M183 308L183 310L185 308L183 308z"/>
    <path style="fill:#fbfcfc; stroke:none;" d="M238 308.529C217.559 313.253 215.059 343.476 234.001 351.929C242.039 355.516 252.428 354 261 354C281.241 354 308.648 358.815 328 352.671C347.793 346.386 347.538 317.06 329 309.483C320.841 306.148 309.669 308 301 308C281.38 308 257.103 304.115 238 308.529z"/>
    <path style="fill:#517193; stroke:none;" d="M328 308L328 309L332 310L332 309L328 308z"/>
    <path style="fill:#aac2da; stroke:none;" d="M115 309L116 310L115 309z"/>
    <path style="fill:#517193; stroke:none;" d="M232 309L227 314L233 310L232 309z"/>
    <path style="fill:#aac2da; stroke:none;" d="M233.667 309.333L234.333 309.667L233.667 309.333M329.667 309.333L330.333 309.667L329.667 309.333M114 310L115 311L114 310M181 310L181 312L183 310L181 310M232 310L233 311L232 310M331 310L331 311L341 322L342 322C340.145 316.544 336.2 312.425 331 310z"/>
    <path style="fill:#517193; stroke:none;" d="M333 310L334 311L333 310z"/>
    <path style="fill:#aac2da; stroke:none;" d="M113 311L114 312L113 311M230 311L231 312L230 311z"/>
    <path style="fill:#517193; stroke:none;" d="M334 311L335 312L334 311z"/>
    <path style="fill:#aac2da; stroke:none;" d="M112 312L113 313L112 312M180 312L181 313L180 312M229 312L230 313L229 312z"/>
    <path style="fill:#517193; stroke:none;" d="M335 312L338 315L335 312z"/>
    <path style="fill:#2671c1; stroke:none;" d="M336 312L337 313L336 312z"/>
    <path style="fill:#517193; stroke:none;" d="M110 313L111 314L110 313z"/>
    <path style="fill:#aac2da; stroke:none;" d="M111 313L112 314L111 313M178 313L178 315L180 313L178 313M228 313L229 314L228 313M110 314C104.007 323.095 101.733 332.953 107 343L108 343C105.726 337.096 103.961 331.337 105.789 325C106.882 321.214 110.212 317.892 110 314z"/>
    <path style="fill:#517193; stroke:none;" d="M226 314L223 318L226 314z"/>
    <path style="fill:#aac2da; stroke:none;" d="M176 315L176 317L178 315L176 315M226 315L227 316L226 315z"/>
    <path style="fill:#517193; stroke:none;" d="M338 315L339 316L338 315M108 316L109 317L108 316z"/>
    <path style="fill:#aac2da; stroke:none;" d="M225 316L226 317L225 316z"/>
    <path style="fill:#517193; stroke:none;" d="M339 316L340 317L339 316M107 317L108 318L107 317z"/>
    <path style="fill:#aac2da; stroke:none;" d="M175 317L176 318L175 317M224 317L225 318L224 317z"/>
    <path style="fill:#517193; stroke:none;" d="M340 317L341 318L340 317z"/>
    <path style="fill:#aac2da; stroke:none;" d="M173 318L173 320L175 318L173 318M223 318C220.299 325.246 219.584 331.375 221 339L222 339L223 318z"/>
    <path style="fill:#517193; stroke:none;" d="M106 319L107 320L106 319M222 319L223 320L222 319M341 319L342 320L341 319z"/>
    <path style="fill:#aac2da; stroke:none;" d="M171 320L171 322L173 320L171 320z"/>
    <path style="fill:#2671c1; stroke:none;" d="M342 320L343 321L342 320z"/>
    <path style="fill:#517193; stroke:none;" d="M105 321L106 322L105 321M221 321L222 322L221 321M342.333 321.667L342.667 322.333L342.333 321.667z"/>
    <path style="fill:#aac2da; stroke:none;" d="M170 322L171 323L170 322z"/>
    <path style="fill:#517193; stroke:none;" d="M104.333 323.667L104.667 324.333L104.333 323.667z"/>
    <path style="fill:#aac2da; stroke:none;" d="M168.667 323.333L169.333 323.667L168.667 323.333M342.333 323.667L342.667 324.333L342.333 323.667z"/>
    <path style="fill:#2671c1; stroke:none;" d="M343 323L344 324L343 323z"/>
    <path style="fill:#517193; stroke:none;" d="M168 324L169 325L168 324M220.333 324.667L220.667 325.333L220.333 324.667M343.333 324.667L343.667 325.333L343.333 324.667z"/>
    <path style="fill:#aac2da; stroke:none;" d="M0 325L2 327L2 325L0 325M166 325L166 327L168 325L166 325z"/>
    <path style="fill:#2671c1; stroke:none;" d="M445 325L445 363L446 363C446 352.089 449.211 335.036 445 325z"/>
    <path style="fill:#517193; stroke:none;" d="M446 325L447 326L446 325z"/>
    <path style="fill:#aac2da; stroke:none;" d="M447 325L446 363L447 363L447 325z"/>
    <path style="fill:#fbfcfc; stroke:none;" d="M0 326L0 365L1 365C1.98216 356.066 4.38303 333.581 0 326z"/>
    <path style="fill:#517193; stroke:none;" d="M219 326L219 335L220 335L219 326z"/>
    <path style="fill:#aac2da; stroke:none;" d="M343 326L342 339L343 339L343 326z"/>
    <path style="fill:#fbfcfc; stroke:none;" d="M447 326L447 365L448 365C448 353.828 451.311 336.274 447 326z"/>
    <path style="fill:#aac2da; stroke:none;" d="M165 327L166 328L165 327M1 328L1 363L2 363L1 328M163 328L163 330L165 328L163 328M161 330L161 332L163 330L161 330z"/>
    <path style="fill:#2671c1; stroke:none;" d="M344.333 330.667L344.667 331.333L344.333 330.667z"/>
    <path style="fill:#517193; stroke:none;" d="M160 332L161 333L160 332z"/>
    <path style="fill:#aac2da; stroke:none;" d="M158.667 333.333L159.333 333.667L158.667 333.333z"/>
    <path style="fill:#517193; stroke:none;" d="M158 334L159 335L158 334z"/>
    <path style="fill:#aac2da; stroke:none;" d="M155 337L158 336L155 337z"/>
    <path style="fill:#517193; stroke:none;" d="M156 336L157 337L156 336M220.333 336.667L220.667 337.333L220.333 336.667M343.333 336.667L343.667 337.333L343.333 336.667M104 337L105 338L104 337M155 337L156 338L155 337z"/>
    <path style="fill:#aac2da; stroke:none;" d="M153.333 338.667L153.667 339.333L153.333 338.667z"/>
    <path style="fill:#517193; stroke:none;" d="M154 338L155 339L154 338M221 339L227 348L221 339M342 339L341 342L342 339M105 340L106 341L105 340z"/>
    <path style="fill:#aac2da; stroke:none;" d="M148 345L149 345L153 341L148 345M222 340L223 341L222 340M341 340L342 341L341 340M340.333 341.667L340.667 342.333L340.333 341.667z"/>
    <path style="fill:#2671c1; stroke:none;" d="M342 341L343 342L342 341z"/>
    <path style="fill:#517193; stroke:none;" d="M106 342L107 343L106 342M150 342L151 343L150 342z"/>
    <path style="fill:#aac2da; stroke:none;" d="M223 342L224 343L223 342z"/>
    <path style="fill:#517193; stroke:none;" d="M107 343L111 348L107 343M149 343L150 344L149 343M340 343L334 351L340 343z"/>
    <path style="fill:#aac2da; stroke:none;" d="M108 344L109 345L108 344M224 344L225 345L224 344M339 344L340 345L339 344M109 345L110 346L109 345M147 345L148 346L147 345M225 345L226 346L225 345M338 345L339 346L338 345M110 346L111 347L110 346M145.667 346.333L146.333 346.667L145.667 346.333M226 346L227 347L226 346M337 346L338 347L337 346z"/>
    <path style="fill:#517193; stroke:none;" d="M145 347L146 348L145 347z"/>
    <path style="fill:#aac2da; stroke:none;" d="M336 347L337 348L336 347z"/>
    <path style="fill:#517193; stroke:none;" d="M111 348L114 351L111 348z"/>
    <path style="fill:#aac2da; stroke:none;" d="M112 348L113 349L112 348M143 348L139 351L139 352L143 348z"/>
    <path style="fill:#517193; stroke:none;" d="M144 348L145 349L144 348M227 348L230 351L227 348z"/>
    <path style="fill:#aac2da; stroke:none;" d="M228 348L229 349L228 348M335 348L336 349L335 348M113 349L114 350L113 349z"/>
    <path style="fill:#517193; stroke:none;" d="M143 349L144 350L143 349z"/>
    <path style="fill:#aac2da; stroke:none;" d="M229 349L230 350L229 349M334 349L335 350L334 349M114 350L114 351L117 352L114 350z"/>
    <path style="fill:#517193; stroke:none;" d="M142 350L143 351L142 350z"/>
    <path style="fill:#aac2da; stroke:none;" d="M230 350L230 351L233 352L230 350M331 352L334 351L331 352z"/>
    <path style="fill:#517193; stroke:none;" d="M115 351L116 352L115 351M140 351L141 352L140 351M231 351L232 352L231 351M332 351L333 352L332 351M116 352L116 353L120 354L120 353L116 352z"/>
    <path style="fill:#aac2da; stroke:none;" d="M118 352L119 353L118 352M137 352L138 353L137 352z"/>
    <path style="fill:#517193; stroke:none;" d="M138.667 352.333L139.333 352.667L138.667 352.333M232 352L232 353L236 354L236 353L232 352z"/>
    <path style="fill:#aac2da; stroke:none;" d="M234 352L235 353L234 352M329 352L330 353L329 352z"/>
    <path style="fill:#517193; stroke:none;" d="M330 352L331 353L330 352z"/>
    <path style="fill:#aac2da; stroke:none;" d="M120 353L120 354L136 354L120 353z"/>
    <path style="fill:#517193; stroke:none;" d="M136.667 353.333L137.333 353.667L136.667 353.333z"/>
    <path style="fill:#aac2da; stroke:none;" d="M236 353L236 354C264.766 357.635 299.234 357.635 328 354L301 354L236 353z"/>
    <path style="fill:#517193; stroke:none;" d="M328.667 353.333L329.333 353.667L328.667 353.333M122.667 354.333L123.333 354.667L122.667 354.333M132.667 354.333L133.333 354.667L132.667 354.333M237 354L237 355L240 355L237 354M324.667 354.333L325.333 354.667L324.667 354.333M124 355L124 356L132 356L124 355M240 355L240 356L324 356L298 355L240 355M445 363L446 364L445 363z"/>
    <path style="fill:#aac2da; stroke:none;" d="M1 364L2 365L1 364z"/>
    <path style="fill:#2671c1; stroke:none;" d="M445.333 364.667L445.667 365.333L445.333 364.667z"/>
    <path style="fill:#aac2da; stroke:none;" d="M446 364L447 365L446 364z"/>
    <path style="fill:#517193; stroke:none;" d="M0.666667 365.333L1.33333 365.667L0.666667 365.333M446.667 365.333L447.333 365.667L446.667 365.333z"/>
    <path style="fill:#aac2da; stroke:none;" d="M0 391L2 393L0 391z"/>
    <path style="fill:#517193; stroke:none;" d="M1 391L2 392L1 391z"/>
    <path style="fill:#2671c1; stroke:none;" d="M445 391L445 403L446 403L445 391z"/>
    <path style="fill:#517193; stroke:none;" d="M446 391L447 392L446 391z"/>
    <path style="fill:#aac2da; stroke:none;" d="M447 391L443 418L444 418C446.975 409.716 448.368 399.769 447 391z"/>
    <path style="fill:#fbfcfc; stroke:none;" d="M0 392L0 448L23 448L24 440L18 440L19 437L9 431L1.32485 407L0 392M447 392C447 409.204 444.214 426.252 429 437L430 448L448 448L448 410L447 392z"/>
    <path style="fill:#aac2da; stroke:none;" d="M1 394L9 431L19 437L18 440L22 439L22 438C11.3191 431.775 4.56764 418.907 2.46373 407C1.70026 402.679 2.70191 398.056 1 394z"/>
    <path style="fill:#517193; stroke:none;" d="M445 403L444 412L445 412L445 403M2 404L2 408L3 408L2 404z"/>
    <path style="fill:#2671c1; stroke:none;" d="M444.333 408.667L444.667 409.333L444.333 408.667z"/>
    <path style="fill:#517193; stroke:none;" d="M3 409L3 412L4 412L3 409z"/>
    <path style="fill:#aac2da; stroke:none;" d="M0 412L1 413L0 412z"/>
    <path style="fill:#517193; stroke:none;" d="M4 415L5 416L4 415M443 415L442 419L443 419L443 415z"/>
    <path style="fill:#2671c1; stroke:none;" d="M442 416L443 417L442 416z"/>
    <path style="fill:#517193; stroke:none;" d="M5.33333 417.667L5.66667 418.333L5.33333 417.667M6 419L7 420L6 419z"/>
    <path style="fill:#2671c1; stroke:none;" d="M441 419L442 420L441 419z"/>
    <path style="fill:#aac2da; stroke:none;" d="M442 419L440 424L442 419z"/>
    <path style="fill:#517193; stroke:none;" d="M441 420L442 421L441 420M7 422L8 423L7 422M440 422L441 423L440 422M8 423L9 424L8 423M439 423L438 426L439 423M9 425L10 426L9 425z"/>
    <path style="fill:#aac2da; stroke:none;" d="M439 425L440 426L439 425z"/>
    <path style="fill:#517193; stroke:none;" d="M10 426L11 427L10 426z"/>
    <path style="fill:#2671c1; stroke:none;" d="M437 426L438 427L437 426z"/>
    <path style="fill:#aac2da; stroke:none;" d="M438 426L439 427L438 426z"/>
    <path style="fill:#517193; stroke:none;" d="M11 427L12 428L11 427M437 427L427 438L437 427z"/>
    <path style="fill:#aac2da; stroke:none;" d="M437 428L438 429L437 428z"/>
    <path style="fill:#517193; stroke:none;" d="M12 429L13 430L12 429z"/>
    <path style="fill:#aac2da; stroke:none;" d="M436 429L433 434L436 429z"/>
    <path style="fill:#517193; stroke:none;" d="M13 430L14 431L13 430M14 431L15 432L14 431M15.3333 432.667L15.6667 433.333L15.3333 432.667M16 434L17 435L16 434z"/>
    <path style="fill:#aac2da; stroke:none;" d="M432 434L433 435L432 434z"/>
    <path style="fill:#517193; stroke:none;" d="M17.6667 435.333L18.3333 435.667L17.6667 435.333z"/>
    <path style="fill:#aac2da; stroke:none;" d="M429 437L432 435L429 437z"/>
    <path style="fill:#517193; stroke:none;" d="M19 436L20 437L19 436M20 437L21 438L20 437z"/>
    <path style="fill:#aac2da; stroke:none;" d="M425 439L425 440L428 439L427 448L430 448L429 437L425 439M22 439L23 440L22 439z"/>
    <path style="fill:#517193; stroke:none;" d="M23 439L23 440L26 441L23 439M422 441L425 440L422 441z"/>
    <path style="fill:#fbfcfc; stroke:none;" d="M424 440L425 448L427 448L428 439L424 440z"/>
    <path style="fill:#aac2da; stroke:none;" d="M24 440L23 448L25 448L27 442L26 448L28 448C28.2124 443.889 27.6292 442.082 24 440M423 440L419 442L419 448C422.569 447.235 422.11 445.059 421 442L423 448L425 448L423 440z"/>
    <path style="fill:#517193; stroke:none;" d="M27 441L28 442L27 441z"/>
    <path style="fill:#2671c1; stroke:none;" d="M419 441L420 442L419 441z"/>
    <path style="fill:#517193; stroke:none;" d="M420 441L421 442L420 441z"/>
    <path style="fill:#fbfcfc; stroke:none;" d="M25 442L25 448L26 448L27 442L25 442z"/>
    <path style="fill:#517193; stroke:none;" d="M28 442L28 443L31 443L28 442M415 443L415 444L419 443L415 443z"/>
    <path style="fill:#fbfcfc; stroke:none;" d="M421 442L422 448L423 448L421 442M29 443L28 448L37 448L37 445L29 443z"/>
    <path style="fill:#aac2da; stroke:none;" d="M30 443L30 444L36 445L36 444L30 443z"/>
    <path style="fill:#517193; stroke:none;" d="M32 443L33 444L32 443z"/>
    <path style="fill:#aac2da; stroke:none;" d="M412 444L412 445L418 444L412 444z"/>
    <path style="fill:#fbfcfc; stroke:none;" d="M418 443L411 445L411 448L419 448L418 443z"/>
    <path style="fill:#517193; stroke:none;" d="M36 444L36 445C94.4587 449.62 154.36 446.99 213.001 446.005C230.285 445.714 246.815 448.034 264 448C297.257 447.934 330.581 446 364 446C375.441 446 386.341 448.421 397.985 447.981C402.884 447.797 407.036 445.23 412 445C401.373 440.656 383.321 444.135 372 444.91C348.962 446.488 325.062 444.888 302 444.999C245.982 445.269 189.967 444.67 134 444.004C101.324 443.615 68.6207 445.397 36 444z"/>
    <path style="fill:#aac2da; stroke:none;" d="M37 448L44 447C41.262 444.969 37.8505 444.031 37 448M406 445L411 448C410.346 444.946 408.993 445.064 406 445z"/>
    <path style="fill:#fbfcfc; stroke:none;" d="M40 447L40 448L46 446L40 447z"/>
    <path style="fill:#aac2da; stroke:none;" d="M46.3333 446.667L46.6667 447.333L46.3333 446.667M74.3333 446.667L74.6667 447.333L74.3333 446.667z"/>
    <path style="fill:#fbfcfc; stroke:none;" d="M75 446C78.6101 450.131 106.39 450.131 110 446C99.8616 448.414 85.1384 448.414 75 446z"/>
    <path style="fill:#aac2da; stroke:none;" d="M76 446L76 447L109 447L76 446M110.333 446.667L110.667 447.333L110.333 446.667M140.333 446.667L140.667 447.333L140.333 446.667z"/>
    <path style="fill:#fbfcfc; stroke:none;" d="M141 446C146.036 451.763 169.348 448 177 448L177 447L141 446z"/>
    <path style="fill:#aac2da; stroke:none;" d="M142 446L142 447L175 447L142 446M176 446L177 447L176 446M206.333 446.667L206.667 447.333L206.333 446.667z"/>
    <path style="fill:#fbfcfc; stroke:none;" d="M207 446C212.036 451.763 235.348 448 243 448L243 447L207 446z"/>
    <path style="fill:#aac2da; stroke:none;" d="M209 446L209 447L241 447L209 446M242 446L243 447L242 446M272 446L272 448L274 446L272 446z"/>
    <path style="fill:#fbfcfc; stroke:none;" d="M273 447L273 448L309 448C301.908 443.899 281.351 446.082 273 447z"/>
    <path style="fill:#aac2da; stroke:none;" d="M275 446L275 447L307 447L275 446M308 446L309 447L308 446M338 446L338 448L340 446L338 446z"/>
    <path style="fill:#fbfcfc; stroke:none;" d="M339 447L339 448L375 448C367.908 443.899 347.351 446.082 339 447z"/>
    <path style="fill:#aac2da; stroke:none;" d="M341 446L341 447L373 447L341 446M374 446L376 448L376 446L374 446M403.333 446.667L403.667 447.333L403.333 446.667z"/>
    <path style="fill:#fbfcfc; stroke:none;" d="M404 446L408 448L404 446z"/>
    <path style="fill:#aac2da; stroke:none;" d="M309 447L310 448L309 447z"/>
</svg>
